# xmcd
#
# Track frame offsets: 
#        150
#        18100
#        31515
#        50736
#        67329
#        78616
#        93860
#        111574
#        127941
#        142473
#        152704
#        166615
#        183477
#        198719
#        214267
#        230162
#        243101
#        254386
#        267887
#        279212
#
# Disc length: 3896 seconds
#
# Revision: 0
# Processed by: cddbd v1.5.2PL0 Copyright (c) Steve Scherf et al.
# Submitted via: ExactAudioCopy v0.90b4
#
DISCID=220f3614
DTITLE=Various Artist - Sveriges Bästa Dansband 21
DYEAR=2011
DGENRE=Dansband
TTITLE0=Christer Sjögren - Ge Oss År Tillbaka
TTITLE1=Titanix - Om Du Bara Visste
TTITLE2=Lasse Stefanz - Pauline
TTITLE3=Tommys - Kom Till Sommaren Min Kära
TTITLE4=Drifters - Kan Ingen Tala Om När Tåget Går
TTITLE5=Arvingarna - Bara Femton År
TTITLE6=Fernandoz - Känslor Som Vi Har (With Git Persson)
TTITLE7=Elisa's - En Stjärna Föll För Oss
TTITLE8=Mats Bergmans - Drömmarnas Man
TTITLE9=Lotta Engbergs - Leva Livet
TTITLE10=Sven-Ingvars - Mina Sommarskor Minns
TTITLE11=Wizex - En Kick Igen (With Lena Pålsson)
TTITLE12=Streaplers - Many Ann
TTITLE13=Flamingokvintetten - Vem Får Dina Kyssar Ikväll
TTITLE14=Lasse Stefanz - Över En Kopp I Vår Berså (With Christina Lind
TTITLE14=berg)
TTITLE15=Vikingarna - Jackpot
TTITLE16=Agneta and Peter - Om Du Vill Mig Nå't
TTITLE17=Wahlströms - Det Är Dags
TTITLE18=BlackJack - Oh Carol
TTITLE19=Lasse Berghagen - Du Som Vandrar Genom Livet
EXTD=
EXTT0=
EXTT1=
EXTT2=
EXTT3=
EXTT4=
EXTT5=
EXTT6=
EXTT7=
EXTT8=
EXTT9=
EXTT10=
EXTT11=
EXTT12=
EXTT13=
EXTT14=
EXTT15=
EXTT16=
EXTT17=
EXTT18=
EXTT19=
PLAYORDER=
